<?xml version="1.0" encoding="UTF-8"?> <svg xmlns="http://www.w3.org/2000/svg" width="120" height="120" viewBox="0 0 120 120" fill="none"> <circle cx="60" cy="60" r="60" fill="#DFF7EA"></circle> <rect x="83.6353" y="40.4901" width="2" height="61" rx="1" transform="rotate(15 83.6353 40.4901)" fill="#2DCA73"></rect> <path d="M90.4948 36.1165C88.1098 41.1714 85.9699 45.2568 83.5809 44.6167C81.1919 43.9765 81.1225 40.3344 81.8434 33.7983C82.4489 28.3094 82.9896 23.7527 88.7573 25.2981C94.0442 26.7148 92.8797 31.0615 90.4948 36.1165Z" fill="white"></path> <path opacity="0.4" fill-rule="evenodd" clip-rule="evenodd" d="M91.4149 29.3782C91.1354 30.2849 90.8547 31.1953 90.6356 32.013C89.6003 35.8767 86.4722 40.2149 84.7084 41.2952C84.0987 41.6686 83.0714 41.8206 81.9393 41.8851C82.172 43.4579 82.7442 44.3924 83.8024 44.6759C86.0815 45.2866 88.1766 41.1893 90.5173 36.1224C92.139 32.6122 93.1961 29.4475 92.0154 27.385C91.8334 28.0204 91.6244 28.6983 91.4149 29.3782Z" fill="#38AF6D"></path> <rect x="29.2612" y="37.9735" width="16" height="62" rx="8" transform="rotate(-15 29.2612 37.9735)" fill="white"></rect> <path opacity="0.4" fill-rule="evenodd" clip-rule="evenodd" d="M36.9886 35.903C32.7209 37.0465 30.1882 41.4332 31.3318 45.7009L43.2375 90.1335C44.381 94.4012 48.7677 96.9339 53.0354 95.7904C53.5306 95.6577 54.0025 95.4813 54.448 95.2665C50.6911 95.5463 47.1461 93.1296 46.1352 89.357L34.2296 44.9245C33.2187 41.152 35.0804 37.2865 38.4739 35.6503C37.9807 35.6871 37.4839 35.7703 36.9886 35.903Z" fill="#38AF6D"></path> <path fill-rule="evenodd" clip-rule="evenodd" d="M45.095 27.5192L48.7184 41.0422C49.1473 42.6426 45.1703 45.0987 39.8356 46.5281C34.501 47.9576 29.8287 47.819 29.3999 46.2186L25.7765 32.6956C25.3476 31.0952 29.3246 28.639 34.6593 27.2096C39.9939 25.7802 44.6661 25.9188 45.095 27.5192Z" fill="#2DCA73"></path> <ellipse cx="35.4357" cy="30.1074" rx="10" ry="3" transform="rotate(-15 35.4357 30.1074)" fill="#2DCA73"></ellipse> <path d="M44.612 27.6486C44.6565 27.8146 44.6106 28.1002 44.2532 28.5315C43.9059 28.9505 43.3328 29.4188 42.5521 29.9009C40.9965 30.8617 38.7166 31.8165 36.0828 32.5222C33.4489 33.228 30.997 33.541 29.1695 33.4868C28.2523 33.4596 27.5219 33.3406 27.0116 33.1514C26.4864 32.9566 26.3039 32.7321 26.2594 32.5662C26.215 32.4002 26.2608 32.1146 26.6183 31.6833C26.9655 31.2643 27.5386 30.796 28.3193 30.3139C29.8749 29.3532 32.1548 28.3983 34.7887 27.6926C37.4225 26.9869 39.8744 26.6738 41.702 26.728C42.6191 26.7552 43.3495 26.8742 43.8598 27.0635C44.385 27.2582 44.5675 27.4827 44.612 27.6486Z" stroke="white" stroke-opacity="0.23"></path> <ellipse cx="35.4356" cy="30.1074" rx="5" ry="1" transform="rotate(-15 35.4356 30.1074)" fill="#38AF6D"></ellipse></svg> 