<?xml version="1.0" encoding="UTF-8"?> <svg xmlns="http://www.w3.org/2000/svg" width="120" height="120" viewBox="0 0 120 120" fill="none"> <circle cx="60" cy="60" r="60" fill="#DFF7EA"></circle> <path d="M29.9641 26.8629C27.2812 29.536 30.6351 92.3533 34.6593 96.3628C36.7234 98.4193 85.903 100.373 86.9761 97.6995C88.3176 94.3581 91.6716 32.2091 88.9886 28.1995C86.3057 24.1899 32.6471 24.1899 29.9641 26.8629Z" fill="white"></path> <path d="M42.1381 80.9781C41.4613 84.4043 43.4919 88.4016 43.4919 89.5437C55.4499 90.3051 79.5013 91.5994 80.0428 90.6858C80.7196 89.5437 81.3965 82.6912 80.7196 80.9781C80.0428 79.265 42.815 77.5519 42.1381 80.9781Z" fill="#2DCA73"></path> <path d="M47 87C47 86.25 48.3191 81 48.9787 81C49.6383 81 50.2979 87.75 50.9574 86.25C51.0939 85.9398 51.2626 85.5895 51.4454 85.2276C52.1016 83.9287 53.8876 83.8523 54.7249 85.0425V85.0425C55.2299 85.7603 56.1439 86.065 56.9786 85.7938L59.5305 84.9648C59.9654 84.8235 60.4269 84.7835 60.8796 84.8478L65.4681 85.5H78" stroke="white"></path> <path d="M38 42.6667C38.6571 42 39.3143 34 41.2857 34C42.3046 34 43.1955 36.226 43.8167 38.5208C44.1643 39.8049 45.8978 40.2058 46.6886 39.1361V39.1361C47.4324 38.1301 49.0612 38.4136 49.6818 39.5C50.2591 40.5107 50.989 41.3333 51.8 41.3333C52.2636 41.3333 52.7386 41.1413 53.1948 40.842C54.9748 39.6741 57.2274 38.8606 59.0692 39.9283V39.9283C59.8897 40.404 60.8561 40.5625 61.7857 40.3739L66.2331 39.4715C66.6838 39.3801 67.147 39.3671 67.6022 39.433L75.6605 40.6009C75.962 40.6446 76.2676 40.6537 76.5712 40.628L84 40M38 50.6667C38.6571 50.6667 76.7714 54 82.6857 52.6667M39.3143 58C40.6286 58.6667 79.4 58 82.6857 58M41.2857 66C63.8914 65.4667 71.2952 64.8889 72.1714 64.6667" stroke="#414555" stroke-linecap="round"></path></svg> 