<svg style="display:none;"><symbol viewBox="0 0 18 18" id="i-address" xmlns="http://www.w3.org/2000/svg"><path d="M9 17.25s6.75-4.5 6.75-9.75a6.75 6.75 0 0 0-13.5 0c0 5.25 6.75 9.75 6.75 9.75zm2.25-9.75a2.25 2.25 0 1 1-4.5 0 2.25 2.25 0 0 1 4.5 0z"/></symbol><symbol viewBox="0 0 10 10" id="i-angle-down" xmlns="http://www.w3.org/2000/svg"><path d="M5 7.85a.698.698 0 0 1-.495-.205l-4.3-4.3a.7.7 0 1 1 .99-.99L5 6.16l3.804-3.805a.7.7 0 0 1 .99.99l-4.299 4.3A.698.698 0 0 1 5 7.85z"/></symbol><symbol viewBox="0 0 16 16" id="i-angle-down-b" xmlns="http://www.w3.org/2000/svg"><path d="M4 6l4 4 4-4"/></symbol><symbol viewBox="0 0 10 10" id="i-angle-left" xmlns="http://www.w3.org/2000/svg"><path d="M2.15 5c0 .18.068.358.205.495l4.3 4.3a.7.7 0 1 0 .99-.99L3.84 5l3.805-3.804a.7.7 0 0 0-.99-.99l-4.3 4.299A.698.698 0 0 0 2.15 5z"/></symbol><symbol viewBox="0 0 10 10" id="i-angle-right" xmlns="http://www.w3.org/2000/svg"><path d="M7.85 5c0 .18-.068.358-.205.495l-4.3 4.3a.7.7 0 1 1-.99-.99L6.16 5 2.355 1.196a.7.7 0 0 1 .99-.99l4.3 4.299A.698.698 0 0 1 7.85 5z"/></symbol><symbol viewBox="0 0 18 18" id="i-bars-list" xmlns="http://www.w3.org/2000/svg"><path d="M0 0h18v2H0zm0 4h18v2H0zm0 4h18v2H0zm0 4h18v2H0zm0 4h18v2H0z"/></symbol><symbol viewBox="0 0 16 16" id="i-cart" xmlns="http://www.w3.org/2000/svg"><path fill-rule="evenodd" clip-rule="evenodd" d="M.667-.083a.75.75 0 1 0 0 1.5h2.052l.54 2.7a.598.598 0 0 0 .012.061l1.113 5.561v.001a2.083 2.083 0 0 0 2.076 1.677h6.467a2.083 2.083 0 0 0 2.075-1.678l.001-.005L16.07 4.14a.75.75 0 0 0-.737-.89H4.615L4.07.52a.75.75 0 0 0-.736-.603H.667zm5.188 9.53l-.94-4.697h9.512l-.896 4.7a.583.583 0 0 1-.583.467H6.439a.583.583 0 0 1-.583-.47zM6 14.082a.083.083 0 1 0 0-.166.083.083 0 0 0 0 .166zM4.583 14a1.417 1.417 0 1 1 2.834 0 1.417 1.417 0 0 1-2.834 0zm8.75.083a.083.083 0 1 0 0-.166.083.083 0 0 0 0 .166zM11.917 14a1.417 1.417 0 1 1 2.833 0 1.417 1.417 0 0 1-2.833 0z"/></symbol><symbol viewBox="0 0 14 14" id="i-check" xmlns="http://www.w3.org/2000/svg"><path d="M7 0C3.14 0 0 3.14 0 7s3.14 7 7 7 7-3.14 7-7-3.14-7-7-7zm3.912 5.158L6.44 9.596a.688.688 0 0 1-.965.018l-2.37-2.158a.712.712 0 0 1-.052-.982.694.694 0 0 1 .982-.035l1.877 1.719 4-4a.7.7 0 0 1 1 0c.281.28.281.72 0 1z"/></symbol><symbol viewBox="0 0 512 512" id="i-circle" xmlns="http://www.w3.org/2000/svg"><path fill="currentColor" d="M256 8C119 8 8 119 8 256s111 248 248 248 248-111 248-248S393 8 256 8z"/></symbol><symbol viewBox="0 0 18 18" id="i-clock" xmlns="http://www.w3.org/2000/svg"><path fill-rule="evenodd" clip-rule="evenodd" d="M2.5 9a6.5 6.5 0 1 1 13 0 6.5 6.5 0 0 1-13 0zM9 .5a8.5 8.5 0 1 0 0 17 8.5 8.5 0 0 0 0-17zm1 4a1 1 0 1 0-2 0V9a1 1 0 0 0 .553.894l3 1.5a1 1 0 1 0 .894-1.788L10 8.382V4.5z"/></symbol><symbol viewBox="0 0 20 20" id="i-compare" xmlns="http://www.w3.org/2000/svg"><path fill-rule="evenodd" clip-rule="evenodd" d="M10 2.333a1 1 0 0 1 1 1v13.334a1 1 0 1 1-2 0V3.333a1 1 0 0 1 1-1zm5 5a1 1 0 0 1 1 1v8.334a1 1 0 1 1-2 0V8.333a1 1 0 0 1 1-1zm-9 4.334a1 1 0 1 0-2 0v5a1 1 0 0 0 2 0v-5z"/></symbol><symbol viewBox="0 0 18 18" id="i-email" xmlns="http://www.w3.org/2000/svg"><path d="M15 3H3c-.469 0-.89.218-1.165.558.083.03.163.07.238.123L9 8.529l6.927-4.848a.962.962 0 0 1 .238-.123A1.499 1.499 0 0 0 15 3zm1.5 2.72l-6.927 4.85a1 1 0 0 1-1.146 0L1.5 5.72v7.78c0 .825.675 1.5 1.5 1.5h12c.825 0 1.5-.675 1.5-1.5V5.72z"/></symbol><symbol viewBox="0 0 18 18" id="i-eye" xmlns="http://www.w3.org/2000/svg"><path fill-rule="evenodd" clip-rule="evenodd" d="M1.93 9.53A12.797 12.797 0 0 1 1.607 9a14.007 14.007 0 0 1 1.848-2.487C4.796 5.08 6.673 3.75 9 3.75c2.325 0 4.203 1.33 5.547 2.763A14.008 14.008 0 0 1 16.394 9a14.007 14.007 0 0 1-1.848 2.487C13.204 12.92 11.327 14.25 9 14.25c-2.325 0-4.203-1.33-5.547-2.763a14.006 14.006 0 0 1-1.522-1.956zm15.99-.866L17.25 9l.67.336v.002l-.003.005-.009.017a13.797 13.797 0 0 1-.579.984 15.46 15.46 0 0 1-1.688 2.169C14.17 14.08 11.925 15.75 9 15.75s-5.172-1.67-6.64-3.237A15.507 15.507 0 0 1 .234 9.626a9.255 9.255 0 0 1-.143-.266l-.009-.017-.002-.005-.001-.001v-.001L.75 9l-.67-.336v-.002l.003-.005.009-.017a5.544 5.544 0 0 1 .143-.266A15.506 15.506 0 0 1 2.36 5.487C3.83 3.92 6.075 2.25 9 2.25s5.172 1.67 6.64 3.237a15.496 15.496 0 0 1 2.125 2.887 9.126 9.126 0 0 1 .143.266l.009.017.002.005.001.001v.001zM17.25 9l.67-.335a.75.75 0 0 1 0 .67L17.25 9zM.08 8.665L.75 9l-.67.335a.75.75 0 0 1 0-.67zM7.5 9a1.5 1.5 0 1 1 3 0 1.5 1.5 0 0 1-3 0zM9 6a3 3 0 1 0 0 6 3 3 0 0 0 0-6z"/></symbol><symbol viewBox="0 0 18 16.05" id="i-favorits" xmlns="http://www.w3.org/2000/svg"><path d="M16.509 1.48a5.002 5.002 0 0 0-7.102-.001L9 1.889l-.407-.41a5.003 5.003 0 0 0-7.102 0A5.101 5.101 0 0 0 0 5.095C0 6.46.53 7.743 1.491 8.712l7.074 7.111a.61.61 0 0 0 .435.184.611.611 0 0 0 .435-.184l7.074-7.11A5.102 5.102 0 0 0 18 5.095a5.1 5.1 0 0 0-1.491-3.617zm-.87 6.263L9 14.416 2.362 7.743a3.737 3.737 0 0 1 0-5.295 3.764 3.764 0 0 1 2.68-1.116c.97 0 1.942.372 2.68 1.117l.843.847a.606.606 0 0 0 .87 0l.842-.848a3.776 3.776 0 0 1 5.361 0 3.738 3.738 0 0 1 0 5.295z"/></symbol><symbol viewBox="0 0 264 512" id="i-fc" xmlns="http://www.w3.org/2000/svg"><path fill="currentColor" d="M76.7 512V283H0v-91h76.7v-71.7C76.7 42.4 124.3 0 193.8 0c33.3 0 61.9 2.5 70.2 3.6V85h-48.2c-37.8 0-45.1 18-45.1 44.3V192H256l-11.7 91h-73.6v229"/></symbol><symbol viewBox="0 0 24 24" id="i-info" xmlns="http://www.w3.org/2000/svg"><path d="M12 6.253c-.746 0-1.371.65-1.371 1.395s.625 1.37 1.37 1.37c.77 0 1.395-.625 1.395-1.37 0-.746-.625-1.395-1.394-1.395zm1.106 4.136h-2.188v7.07h2.188v-7.07z" fill="currentColor"/><path d="M12 0C5.387 0 0 5.387 0 12s5.387 12 12 12a11.95 11.95 0 0 0 8.489-3.511A11.953 11.953 0 0 0 24 12c0-6.613-5.387-12-12-12zm6.926 18.95a9.79 9.79 0 0 1-6.95 2.886c-5.41 0-9.812-4.401-9.812-9.812 0-5.41 4.425-9.836 9.836-9.836 5.41 0 9.812 4.401 9.812 9.812 0 2.621-1.01 5.098-2.886 6.95z"/></symbol><symbol viewBox="0 0 448 512" id="i-inst" xmlns="http://www.w3.org/2000/svg"><path d="M224.1 141c-63.6 0-114.9 51.3-114.9 114.9s51.3 114.9 114.9 114.9S339 319.5 339 255.9 287.7 141 224.1 141zm0 189.6c-41.1 0-74.7-33.5-74.7-74.7s33.5-74.7 74.7-74.7 74.7 33.5 74.7 74.7-33.6 74.7-74.7 74.7zm146.4-194.3c0 14.9-12 26.8-26.8 26.8-14.9 0-26.8-12-26.8-26.8s12-26.8 26.8-26.8 26.8 12 26.8 26.8zm76.1 27.2c-1.7-35.9-9.9-67.7-36.2-93.9-26.2-26.2-58-34.4-93.9-36.2-37-2.1-147.9-2.1-184.9 0-35.8 1.7-67.6 9.9-93.9 36.1s-34.4 58-36.2 93.9c-2.1 37-2.1 147.9 0 184.9 1.7 35.9 9.9 67.7 36.2 93.9s58 34.4 93.9 36.2c37 2.1 147.9 2.1 184.9 0 35.9-1.7 67.7-9.9 93.9-36.2 26.2-26.2 34.4-58 36.2-93.9 2.1-37 2.1-147.8 0-184.8zM398.8 388c-7.8 19.6-22.9 34.7-42.6 42.6-29.5 11.7-99.5 9-132.1 9s-102.7 2.6-132.1-9c-19.6-7.8-34.7-22.9-42.6-42.6-11.7-29.5-9-99.5-9-132.1s-2.6-102.7 9-132.1c7.8-19.6 22.9-34.7 42.6-42.6 29.5-11.7 99.5-9 132.1-9s102.7-2.6 132.1 9c19.6 7.8 34.7 22.9 42.6 42.6 11.7 29.5 9 99.5 9 132.1s2.7 102.7-9 132.1z"/></symbol><symbol viewBox="0 0 18 18" id="i-list" xmlns="http://www.w3.org/2000/svg"><path d="M0 0h4v4H0zm6 0h12v4H6zm0 7h12v4H6zm0 7h12v4H6zM0 7h4v4H0zm0 7h4v4H0z"/></symbol><symbol viewBox="0 0 512 512" id="i-loading" xmlns="http://www.w3.org/2000/svg"><path d="M460.116 373.846l-20.823-12.022c-5.541-3.199-7.54-10.159-4.663-15.874 30.137-59.886 28.343-131.652-5.386-189.946-33.641-58.394-94.896-95.833-161.827-99.676C261.028 55.961 256 50.751 256 44.352V20.309c0-6.904 5.808-12.337 12.703-11.982 83.556 4.306 160.163 50.864 202.11 123.677 42.063 72.696 44.079 162.316 6.031 236.832-3.14 6.148-10.75 8.461-16.728 5.01z"/></symbol><symbol viewBox="0 0 384 512" id="i-minus" xmlns="http://www.w3.org/2000/svg"><path fill="currentColor" d="M368 224H16c-8.84 0-16 7.16-16 16v32c0 8.84 7.16 16 16 16h352c8.84 0 16-7.16 16-16v-32c0-8.84-7.16-16-16-16z"/></symbol><symbol viewBox="0 0 320 512" id="i-odn" xmlns="http://www.w3.org/2000/svg"><path d="M275.1 334c-27.4 17.4-65.1 24.3-90 26.9l20.9 20.6 76.3 76.3c27.9 28.6-17.5 73.3-45.7 45.7-19.1-19.4-47.1-47.4-76.3-76.6L84 503.4c-28.2 27.5-73.6-17.6-45.4-45.7 19.4-19.4 47.1-47.4 76.3-76.3l20.6-20.6c-24.6-2.6-62.9-9.1-90.6-26.9-32.6-21-46.9-33.3-34.3-59 7.4-14.6 27.7-26.9 54.6-5.7 0 0 36.3 28.9 94.9 28.9s94.9-28.9 94.9-28.9c26.9-21.1 47.1-8.9 54.6 5.7 12.4 25.7-1.9 38-34.5 59.1zM30.3 129.7C30.3 58 88.6 0 160 0s129.7 58 129.7 129.7c0 71.4-58.3 129.4-129.7 129.4s-129.7-58-129.7-129.4zm66 0c0 35.1 28.6 63.7 63.7 63.7s63.7-28.6 63.7-63.7c0-35.4-28.6-64-63.7-64s-63.7 28.6-63.7 64z"/></symbol><symbol viewBox="0 0 30 30" id="i-pay-alphabank" xmlns="http://www.w3.org/2000/svg"><path d="M15.001 6c1.272 0 1.672.879 2.008 1.756l3.546 9.351c.026.073.008.193-.108.236-.118.043-1.835.686-1.93.72a.186.186 0 0 1-.236-.107c-.036-.09-.749-1.99-.83-2.203h-4.899c-.077.212-.798 2.117-.83 2.203a.183.183 0 0 1-.237.107l-1.929-.72a.184.184 0 0 1-.11-.236c.122-.326 3.378-8.904 3.544-9.351.323-.864.736-1.756 2.011-1.756zM9.185 21.598A.184.184 0 0 0 9 21.78v2.037c0 .1.082.182.185.182h11.628a.183.183 0 0 0 .187-.182V21.78c0-.1-.082-.183-.187-.183H9.185zM14.99 8.846l-1.656 4.79h3.34l-1.663-4.79h-.021z" fill="#EE2A23"/></symbol><symbol viewBox="0 0 30 30" id="i-pay-mastercard" xmlns="http://www.w3.org/2000/svg"><path d="M17.759 19.665H12.24V9.748h5.518v9.917z" fill="#FF5F00"/><path d="M12.595 14.706c0-2.011.941-3.803 2.408-4.958A6.306 6.306 0 0 0 4.8 14.706a6.306 6.306 0 0 0 10.203 4.958 6.296 6.296 0 0 1-2.408-4.958z" fill="#EB001B"/><path d="M25.2 14.706a6.306 6.306 0 0 1-10.203 4.958 6.295 6.295 0 0 0 2.409-4.958 6.295 6.295 0 0 0-2.409-4.958A6.306 6.306 0 0 1 25.2 14.706z" fill="#F79E1B"/></symbol><symbol viewBox="0 0 30 30" id="i-pay-qiwi" xmlns="http://www.w3.org/2000/svg"><path d="M25.941 25.665c.183.226-.101.453-.305.266-2.115-1.81-3.895-2.332-5.654-2.4-.935-.04-1.86.049-2.837.127-.193.02-.386.03-.59.05-.081.01-.172.01-.264.02a9.484 9.484 0 0 1-1.037.058 9.594 9.594 0 0 1-4.647-1.17c-1.434-.778-2.573-1.86-3.387-3.227A8.57 8.57 0 0 1 6 14.923c0-1.604.407-3.119 1.22-4.486a8.792 8.792 0 0 1 3.346-3.256A9.217 9.217 0 0 1 15.132 6c1.698 0 3.274.394 4.708 1.17a8.809 8.809 0 0 1 3.396 3.237c.824 1.368 1.23 2.873 1.23 4.486 0 .62-.06 1.22-.182 1.81-.02.089-.041.187-.072.305a2.32 2.32 0 0 1-.08.285h-.011c-.163.512-.468 1.23-1.037 2.155-.061.098-.092.02-.102-.03-.203-1.357-.813-2.39-1.901-3.06a.196.196 0 0 1-.051-.029 3.377 3.377 0 0 0-.57-.285 6.306 6.306 0 0 0-.834-.285c-.183-.05-.59-.03-.447-.168.06-.058.946-.068 1.973-.01h.06c.021-.206.031-.422.031-.639 0-1.692-.58-3.079-1.77-4.22-1.189-1.151-2.592-1.702-4.27-1.702-1.719 0-3.112.56-4.26 1.712-1.15 1.15-1.72 2.528-1.72 4.19 0 1.663.58 3.02 1.76 4.172 1.19 1.15 2.562 1.702 4.21 1.702h.234v-.06c-.092-1.17-.112-2.144.132-1.75.091.137.173.265.264.393.326.472.651.856.966 1.18l.051.05c1.17 1.15 2.319 1.436 3.549 1.721.03.01.05.01.081.02l.61.147c1.445.355 3.02.965 4.861 3.168zm-4.037-7.073c-.183-.05-.315-.01-.386.108-.102.177-.03.531.173.836.203.315.386.473.518.473.051 0 .092-.02.122-.06.082-.088.102-.265.072-.491-.02-.236-.173-.718-.499-.866zm-2.044 1.456a.555.555 0 0 0-.437.177c-.244.285-.132.797.234 1.112a.994.994 0 0 0 .63.216.694.694 0 0 0 .55-.236c.213-.285.091-.679-.316-1.013a1.013 1.013 0 0 0-.66-.256z" fill="#FF8C00"/></symbol><symbol viewBox="0 0 30 30" id="i-pay-sberbank" xmlns="http://www.w3.org/2000/svg"><path d="M24 15.155C24 20.04 19.97 24 15 24s-9-3.96-9-8.845c0-.2.008-.396.021-.59l5.449 3.08 11.542-6.525A8.692 8.692 0 0 1 24 15.155zm-12.53.264l-5.073-2.868c-.1.318-.18.643-.244.976l5.317 3.005 11.046-6.244a9.25 9.25 0 0 0-.588-.781L11.47 15.419zm9.772-6.636a9.04 9.04 0 0 0-.79-.667l-8.982 5.078-4.288-2.424a8.735 8.735 0 0 0-.44.864l4.728 2.672 9.772-5.523zM11.47 12.08l8.074-4.563A9.062 9.062 0 0 0 18.492 7l-7.022 3.969-3.127-1.768c-.223.24-.432.495-.627.758l3.754 2.122z" fill="#299D30"/></symbol><symbol viewBox="0 0 30 30" id="i-pay-visa" xmlns="http://www.w3.org/2000/svg"><path d="M12.884 18.48h-1.86l1.162-6.956h1.861l-1.163 6.956zm-3.426-6.956L7.685 16.31l-.21-1.03-.626-3.128s-.076-.627-.882-.627H3.034L3 11.642s.897.182 1.946.795l1.616 6.043h1.939l2.96-6.956H9.458zm14.634 6.956H25.8l-1.49-6.956h-1.495c-.69 0-.859.519-.859.519l-2.774 6.437h1.939l.388-1.033h2.365l.218 1.033zm-2.047-2.46l.977-2.603.55 2.603h-1.527zm-2.718-2.823l.265-1.494s-.819-.303-1.673-.303c-.923 0-3.116.393-3.116 2.303 0 1.797 2.574 1.82 2.574 2.763 0 .944-2.308.775-3.07.18l-.277 1.561s.831.393 2.1.393c1.27 0 3.185-.64 3.185-2.381 0-1.809-2.596-1.977-2.596-2.763 0-.787 1.812-.686 2.608-.259z" fill="#fff"/><path d="M7.475 15.23l-.626-3.09s-.076-.618-.882-.618H3.034L3 11.64s1.41.28 2.761 1.332c1.293 1.005 1.714 2.258 1.714 2.258z" fill="#E6A540"/></symbol><symbol viewBox="0 0 30 30" id="i-pay-visa-black" xmlns="http://www.w3.org/2000/svg"><path d="M12.884 18.48h-1.86l1.162-6.956h1.861l-1.163 6.956zm-3.426-6.956L7.685 16.31l-.21-1.03-.626-3.128s-.076-.627-.882-.627H3.034L3 11.642s.897.182 1.946.795l1.616 6.043h1.939l2.96-6.956H9.458zm14.634 6.956H25.8l-1.49-6.956h-1.495c-.69 0-.859.519-.859.519l-2.774 6.437h1.939l.388-1.033h2.365l.218 1.033zm-2.047-2.46l.977-2.603.55 2.603h-1.527zm-2.718-2.823l.265-1.494s-.819-.303-1.673-.303c-.923 0-3.116.393-3.116 2.303 0 1.797 2.574 1.82 2.574 2.763 0 .944-2.308.775-3.07.18l-.277 1.561s.831.393 2.1.393c1.27 0 3.185-.64 3.185-2.381 0-1.809-2.596-1.977-2.596-2.763 0-.787 1.812-.686 2.608-.259z" fill="#1C1C71"/><path d="M7.475 15.23l-.626-3.09s-.076-.618-.882-.618H3.034L3 11.64s1.41.28 2.761 1.332c1.293 1.005 1.714 2.258 1.714 2.258z" fill="#E6A540"/></symbol><symbol viewBox="0 0 30 30" id="i-pay-webmoney" xmlns="http://www.w3.org/2000/svg"><path d="M14.957 6c1.404 0 2.74.327 3.94.911.188.086.377.19.564.293l-.822.739-1.232-1.29-2.124 1.892-1.25-1.359-3.906 3.525 2.5 2.768-.975.86 2.466 2.767-.976.86 3.529 3.937 2.088-1.926 1.816 2.064c-.36.275-.754.55-1.181.79A8.924 8.924 0 0 1 14.973 24C10.024 24 6 19.96 6 14.992 5.983 10.058 10.008 6 14.957 6zm-1.644 8.442l2.14-1.926 1.92 2.149-2.142 1.925-1.918-2.148zm1.524 3.713l2.124-1.942 1.936 2.149-2.141 1.925-1.918-2.132zM11.79 10.78l2.14-1.926 1.919 2.15-2.141 1.925-1.918-2.15zm3.922-1.032l1.593-1.444 1.439 1.599-1.593 1.461-1.44-1.616zm2.843 6.62l1.593-1.445 1.438 1.616-1.593 1.445-1.438-1.617zm1.404 3.249l1.593-1.445 1.438 1.6-1.592 1.46-1.439-1.615zm.651-7.428l1.062-.963.959 1.067-1.062.962-.959-1.066zm-1.37-3.18l1.062-.98.96 1.083-1.063.963-.959-1.066zm2.723 6.361l1.062-.963.976 1.066-1.079.963-.959-1.066zm-4.778-2.39l1.593-1.444 1.438 1.599-1.592 1.444-1.44-1.599z" fill="#036CB5"/></symbol><symbol viewBox="0 0 30 30" id="i-pay-yandex" xmlns="http://www.w3.org/2000/svg"><path d="M7 13.925c0-1.122.098-1.834 2.548-3.575C11.575 8.912 18.062 4 18.062 4v8.198H23V24H8.543C7.696 24 7 23.338 7 22.533v-8.609z" fill="#FFCF01"/><path d="M18.055 12.205v4.754l-9.066 5.875 11.463-3.552v-7.077h-2.397z" fill="#D3AB07"/><path d="M13.911 11.96c.53-.603 1.308-.812 1.732-.474.423.338.34 1.1-.19 1.705-.529.604-1.308.812-1.731.474-.423-.345-.34-1.107.189-1.704z"/></symbol><symbol viewBox="0 0 320 512" id="i-percent" xmlns="http://www.w3.org/2000/svg"><path fill="currentColor" d="M317.66 132.28c3.12-3.12 3.12-8.19 0-11.31l-22.63-22.63c-3.12-3.12-8.19-3.12-11.31 0L2.34 379.71c-3.12 3.12-3.12 8.19 0 11.31l22.63 22.63c3.12 3.12 8.19 3.12 11.31 0L296.5 153.44l21.16-21.16zM64 224c16.38 0 32.76-6.25 45.25-18.74 24.99-24.99 24.99-65.52 0-90.51C96.76 102.25 80.38 96 64 96s-32.76 6.25-45.26 18.75c-24.99 24.99-24.99 65.52 0 90.51C31.24 217.75 47.62 224 64 224zm-22.62-86.63C47.42 131.33 55.45 128 64 128s16.58 3.33 22.63 9.37c12.48 12.48 12.47 32.78 0 45.25C80.59 188.67 72.55 192 64 192c-8.55 0-16.58-3.33-22.62-9.37-12.48-12.48-12.48-32.78 0-45.26zM256 288c-16.38 0-32.76 6.25-45.26 18.75-24.99 24.99-24.99 65.52 0 90.51C223.24 409.75 239.62 416 256 416s32.76-6.25 45.25-18.74c24.99-24.99 24.99-65.52 0-90.51C288.76 294.25 272.38 288 256 288zm22.63 86.63c-6.04 6.04-14.08 9.37-22.63 9.37-8.55 0-16.58-3.33-22.62-9.37-12.48-12.48-12.48-32.78 0-45.26 6.04-6.04 14.08-9.37 22.62-9.37 8.55 0 16.58 3.33 22.63 9.37 12.48 12.48 12.47 32.78 0 45.26z"/></symbol><symbol viewBox="0 0 16 16" id="i-phone" xmlns="http://www.w3.org/2000/svg"><path d="M14.259 10.947v2a1.332 1.332 0 0 1-1.454 1.333 13.193 13.193 0 0 1-5.753-2.047 13 13 0 0 1-4-4 13.193 13.193 0 0 1-2.047-5.78A1.333 1.333 0 0 1 2.332 1h2a1.333 1.333 0 0 1 1.333 1.147 8.56 8.56 0 0 0 .467 1.873 1.333 1.333 0 0 1-.3 1.407l-.847.846a10.667 10.667 0 0 0 4 4l.847-.846a1.333 1.333 0 0 1 1.407-.3 8.56 8.56 0 0 0 1.873.466 1.333 1.333 0 0 1 1.147 1.354z"/></symbol><symbol viewBox="0 0 384 512" id="i-plus" xmlns="http://www.w3.org/2000/svg"><path fill="currentColor" d="M368 224H224V80c0-8.84-7.16-16-16-16h-32c-8.84 0-16 7.16-16 16v144H16c-8.84 0-16 7.16-16 16v32c0 8.84 7.16 16 16 16h144v144c0 8.84 7.16 16 16 16h32c8.84 0 16-7.16 16-16V288h144c8.84 0 16-7.16 16-16v-32c0-8.84-7.16-16-16-16z"/></symbol><symbol viewBox="0 0 12 12" id="i-remove" xmlns="http://www.w3.org/2000/svg"><path d="M7.322 6l4.486-4.486A.653.653 0 0 0 12 1.05a.651.651 0 0 0-.192-.464l-.393-.393A.65.65 0 0 0 10.951 0a.65.65 0 0 0-.464.192L6 4.679 1.513.193A.65.65 0 0 0 1.05 0a.65.65 0 0 0-.464.192L.192.586a.657.657 0 0 0 0 .928L4.679 6 .192 10.487a.652.652 0 0 0-.192.464c0 .176.068.34.192.464l.393.394A.65.65 0 0 0 1.05 12a.65.65 0 0 0 .464-.191L6 7.322l4.487 4.487a.651.651 0 0 0 .464.191c.176 0 .34-.068.464-.191l.393-.393A.652.652 0 0 0 12 10.95a.652.652 0 0 0-.192-.464L7.322 6.001z"/></symbol><symbol viewBox="0 0 20 20" id="i-reviews" xmlns="http://www.w3.org/2000/svg"><path d="M3.75 3.125h12.5c.69 0 1.25.56 1.25 1.25v7.5c0 .69-.56 1.25-1.25 1.25h-.625v2.812a.93.93 0 0 1-.546.852.93.93 0 0 1-1.026-.162l-3.678-3.502H3.75c-.69 0-1.25-.56-1.25-1.25v-7.5c0-.69.56-1.25 1.25-1.25zm0 8.75h6.875c.16 0 .315.062.43.172l3.32 3.16V12.5c0-.345.28-.625.625-.625h1.25v-7.5H3.75v7.5z"/></symbol><symbol viewBox="0 0 18 18" id="i-search" xmlns="http://www.w3.org/2000/svg"><path fill-rule="evenodd" clip-rule="evenodd" d="M3.25 8.25a5 5 0 1 1 8.613 3.457 1.002 1.002 0 0 0-.156.156A5 5 0 0 1 3.25 8.25zm9.192 5.606a7 7 0 1 1 1.414-1.414l2.601 2.6a1 1 0 0 1-1.414 1.415l-2.6-2.6z"/></symbol><symbol viewBox="0 0 18 18" id="i-thumbs" xmlns="http://www.w3.org/2000/svg"><path d="M0 8h8V0H0v8zm0 10h8v-8H0v8zm10 0h8v-8h-8v8zm0-18v8h8V0"/></symbol><symbol viewBox="0 0 512 512" id="i-tw" xmlns="http://www.w3.org/2000/svg"><path d="M459.37 151.716c.325 4.548.325 9.097.325 13.645 0 138.72-105.583 298.558-298.558 298.558-59.452 0-114.68-17.219-161.137-47.106 8.447.974 16.568 1.299 25.34 1.299 49.055 0 94.213-16.568 130.274-44.832-46.132-.975-84.792-31.188-98.112-72.772 6.498.974 12.995 1.624 19.818 1.624 9.421 0 18.843-1.3 27.614-3.573-48.081-9.747-84.143-51.98-84.143-102.985v-1.299c13.969 7.797 30.214 12.67 47.431 13.319-28.264-18.843-46.781-51.005-46.781-87.391 0-19.492 5.197-37.36 14.294-52.954 51.655 63.675 129.3 105.258 216.365 109.807-1.624-7.797-2.599-15.918-2.599-24.04 0-57.828 46.782-104.934 104.934-104.934 30.213 0 57.502 12.67 76.67 33.137 23.715-4.548 46.456-13.32 66.599-25.34-7.798 24.366-24.366 44.833-46.132 57.827 21.117-2.273 41.584-8.122 60.426-16.243-14.292 20.791-32.161 39.308-52.628 54.253z"/></symbol><symbol viewBox="0 0 18 18" id="i-user" xmlns="http://www.w3.org/2000/svg"><path d="M12 5.25C12 6.90685 10.6569 8.25 9 8.25C7.34315 8.25 6 6.90685 6 5.25C6 3.59315 7.34315 2.25 9 2.25C10.6569 2.25 12 3.59315 12 5.25ZM15 14.25V15.75H3V14.25C3 13.4544 3.31607 12.6913 3.87868 12.1287C4.44129 11.5661 5.20435 11.25 6 11.25H12C12.7956 11.25 13.5587 11.5661 14.1213 12.1287C14.6839 12.6913 15 13.4544 15 14.25Z"/></symbol><symbol viewBox="0 0 576 512" id="i-vk" xmlns="http://www.w3.org/2000/svg"><path d="M545 117.7c3.7-12.5 0-21.7-17.8-21.7h-58.9c-15 0-21.9 7.9-25.6 16.7 0 0-30 73.1-72.4 120.5-13.7 13.7-20 18.1-27.5 18.1-3.7 0-9.4-4.4-9.4-16.9V117.7c0-15-4.2-21.7-16.6-21.7h-92.6c-9.4 0-15 7-15 13.5 0 14.2 21.2 17.5 23.4 57.5v86.8c0 19-3.4 22.5-10.9 22.5-20 0-68.6-73.4-97.4-157.4-5.8-16.3-11.5-22.9-26.6-22.9H38.8c-16.8 0-20.2 7.9-20.2 16.7 0 15.6 20 93.1 93.1 195.5C160.4 378.1 229 416 291.4 416c37.5 0 42.1-8.4 42.1-22.9 0-66.8-3.4-73.1 15.4-73.1 8.7 0 23.7 4.4 58.7 38.1 40 40 46.6 57.9 69 57.9h58.9c16.8 0 25.3-8.4 20.4-25-11.2-34.9-86.9-106.7-90.3-111.5-8.7-11.2-6.2-16.2 0-26.2.1-.1 72-101.3 79.4-135.6z"/></symbol><symbol viewBox="0 0 576 512" id="i-youtube" xmlns="http://www.w3.org/2000/svg"><path d="M549.655 124.083c-6.281-23.65-24.787-42.276-48.284-48.597C458.781 64 288 64 288 64S117.22 64 74.629 75.486c-23.497 6.322-42.003 24.947-48.284 48.597-11.412 42.867-11.412 132.305-11.412 132.305s0 89.438 11.412 132.305c6.281 23.65 24.787 41.5 48.284 47.821C117.22 448 288 448 288 448s170.78 0 213.371-11.486c23.497-6.321 42.003-24.171 48.284-47.821 11.412-42.867 11.412-132.305 11.412-132.305s0-89.438-11.412-132.305zm-317.51 213.508V175.185l142.739 81.205-142.739 81.201z"/></symbol><symbol id="i-cart-b" viewBox="0 0 16 14" xmlns="http://www.w3.org/2000/svg"><path d="M14.67 8.23919L15.9831 2.55169C16.0779 2.14104 15.7609 1.75 15.3331 1.75H4.42244L4.16783 0.524727C4.10439 0.219324 3.83139 0 3.51469 0H0.666667C0.298472 0 0 0.293809 0 0.65625V1.09375C0 1.45619 0.298472 1.75 0.666667 1.75H2.60786L4.55919 11.1408C4.09236 11.4051 3.77778 11.9006 3.77778 12.4688C3.77778 13.3144 4.47422 14 5.33333 14C6.19244 14 6.88889 13.3144 6.88889 12.4688C6.88889 12.0402 6.70981 11.6529 6.42156 11.375H12.2451C11.9569 11.6529 11.7778 12.0402 11.7778 12.4688C11.7778 13.3144 12.4742 14 13.3333 14C14.1924 14 14.8889 13.3144 14.8889 12.4688C14.8889 11.8625 14.5309 11.3386 14.0117 11.0905L14.1649 10.4267C14.2597 10.016 13.9427 9.625 13.5149 9.625H6.05881L5.877 8.75H14.0199C14.3312 8.75 14.601 8.53798 14.67 8.23919Z"/></symbol><symbol id="i-filter" viewBox="0 0 512 512" xmlns="http://www.w3.org/2000/svg"><path fill="currentColor" d="M479.968 0H32.038C3.613 0-10.729 34.487 9.41 54.627L192 237.255V424a31.996 31.996 0 0 0 10.928 24.082l64 55.983c20.438 17.883 53.072 3.68 53.072-24.082V237.255L502.595 54.627C522.695 34.528 508.45 0 479.968 0zM288 224v256l-64-56V224L32 32h448L288 224z" class=""></path></symbol><symbol id="i-check-l" xmlns="http://www.w3.org/2000/svg" viewBox="0 0 448 512"><path d="M413.505 91.951L133.49 371.966l-98.995-98.995c-4.686-4.686-12.284-4.686-16.971 0L6.211 284.284c-4.686 4.686-4.686 12.284 0 16.971l118.794 118.794c4.686 4.686 12.284 4.686 16.971 0l299.813-299.813c4.686-4.686 4.686-12.284 0-16.971l-11.314-11.314c-4.686-4.686-12.284-4.686-16.97 0z"></path></symbol><symbol id="i-reply" viewBox="0 0 14 14" xmlns="http://www.w3.org/2000/svg"><path d="M13.5625 12.8334C13.405 12.8334 13.2568 12.7482 13.1787 12.6053L13.1664 12.5831C11.858 10.22 9.36483 8.75004 6.6605 8.75004H5.83333V11.2292C5.83333 11.4048 5.72775 11.5635 5.56617 11.6323C5.40575 11.7 5.21675 11.6661 5.09133 11.543L0.133 6.73054C0.0478333 6.64829 0 6.53512 0 6.4167C0 6.29829 0.0478333 6.18512 0.133 6.10287L5.09133 1.29036C5.21733 1.16786 5.40575 1.13286 5.56617 1.20111C5.72775 1.26995 5.83333 1.42861 5.83333 1.6042V4.08453C10.3501 4.1627 14 7.86104 14 12.3959C14 12.596 13.8647 12.7704 13.671 12.82C13.6348 12.8293 13.5987 12.8334 13.5625 12.8334ZM5.39583 7.87504H6.6605C9.0965 7.87504 11.3791 8.94196 12.9395 10.7398C12.1847 7.43287 9.21958 4.95837 5.6875 4.95837H5.39583C5.15433 4.95837 4.95833 4.76237 4.95833 4.52087V2.63845L1.06575 6.4167L4.95833 10.195V8.31254C4.95833 8.07104 5.15433 7.87504 5.39583 7.87504Z"/></symbol><symbol id="i-russia" xmlns="http://www.w3.org/2000/svg" viewBox="0 0 9 6"><rect fill="#fff" width="9" height="3"/><rect fill="#d52b1e" y="3" width="9" height="3"/><rect fill="#0039a6" y="2" width="9" height="2"/></symbol><symbol id="i-usa" xmlns="http://www.w3.org/2000/svg" xmlns:xlink="http://www.w3.org/1999/xlink" viewBox="0 0 7410 3900"><rect width="100%" height="100%" fill="#b22234"/><path d="M0,450H7410m0,600H0m0,600H7410m0,600H0m0,600H7410m0,600H0" stroke="#fff" stroke-width="300"/><rect width="2964" height="2100" fill="#3c3b6e"/><g fill="#fff"><g id="s18"><g id="s9"><g id="s5"><g id="s4"><path id="s" d="M247,90 317.534230,307.082039 132.873218,172.917961H361.126782L176.465770,307.082039z"/><use xlink:href="#s" y="420"/><use xlink:href="#s" y="840"/><use xlink:href="#s" y="1260"/></g><use xlink:href="#s" y="1680"/></g><use xlink:href="#s4" x="247" y="210"/></g><use xlink:href="#s9" x="494"/></g><use xlink:href="#s18" x="988"/><use xlink:href="#s9" x="1976"/><use xlink:href="#s5" x="2470"/></g></symbol><symbol viewBox="0 0 24 24" id="i-tg" xmlns="http://www.w3.org/2000/svg"><path d="M18.92 6.089L4.747 11.555c-.967.388-.962.928-.176 1.168l3.534 1.104 1.353 4.146c.164.454.083.634.56.634.368 0 .53-.168.736-.368.13-.127.903-.88 1.767-1.719l3.677 2.717c.676.373 1.165.18 1.333-.628l2.414-11.374c.247-.99-.378-1.44-1.025-1.146zM8.66 13.573l7.967-5.026c.398-.242.763-.112.463.154l-6.822 6.155-.265 2.833-1.343-4.116z"/></symbol><symbol viewBox="0 0 24 24" id="i-wat" xmlns="http://www.w3.org/2000/svg"><path d="M20 11.794c0 4.304-3.517 7.794-7.855 7.794a7.87 7.87 0 0 1-3.796-.97L4 20l1.418-4.182a7.714 7.714 0 0 1-1.127-4.024C4.29 7.489 7.807 4 12.145 4S20 7.49 20 11.794zm-7.855-6.553c-3.641 0-6.603 2.94-6.603 6.553A6.48 6.48 0 0 0 6.8 15.636l-.825 2.433 2.537-.806a6.6 6.6 0 0 0 3.633 1.084c3.642 0 6.604-2.94 6.604-6.553s-2.962-6.553-6.604-6.553zm3.967 8.348c-.049-.08-.177-.128-.37-.223-.192-.095-1.139-.558-1.315-.621-.177-.064-.305-.096-.434.095a10.92 10.92 0 0 1-.61.749c-.112.128-.224.143-.416.048-.193-.096-.813-.297-1.549-.948a5.76 5.76 0 0 1-1.07-1.323c-.113-.191-.013-.295.084-.39.086-.086.192-.223.289-.334.096-.112.128-.191.192-.319s.032-.239-.016-.335c-.048-.095-.433-1.035-.594-1.418-.16-.382-.32-.318-.433-.318-.112 0-.24-.016-.369-.016a.71.71 0 0 0-.513.239c-.177.19-.674.653-.674 1.593s.69 1.848.786 1.976c.096.127 1.332 2.119 3.289 2.884 1.958.764 1.958.51 2.31.477.353-.031 1.14-.461 1.3-.908.16-.446.16-.829.113-.908z"/></symbol><symbol viewBox="0 0 24 24" id="i-vib" xmlns="http://www.w3.org/2000/svg"><path d="M18.434 15.574c-.484-.391-1.002-.743-1.511-1.102-1.016-.718-1.945-.773-2.703.38-.426.648-1.021.677-1.644.392-1.718-.782-3.044-1.989-3.821-3.743-.344-.777-.34-1.473.465-2.022.425-.29.854-.634.82-1.268-.045-.828-2.043-3.593-2.832-3.885a1.429 1.429 0 0 0-.984 0C4.373 4.95 3.606 6.48 4.34 8.292c2.19 5.405 6.043 9.167 11.349 11.463.302.13.638.183.808.23 1.208.012 2.623-1.158 3.032-2.318.393-1.117-.438-1.56-1.096-2.093zM12.485 4.88c3.879.6 5.668 2.454 6.162 6.38.045.363-.09.909.426.919.538.01.408-.528.413-.89.045-3.699-3.163-7.127-6.888-7.253-.281.04-.863-.195-.9.438-.024.427.466.357.787.406z"/><path d="M13.244 5.957c-.373-.045-.865-.222-.953.299-.09.546.458.49.811.57 2.395.538 3.23 1.414 3.624 3.802.057.349-.057.89.532.8.436-.066.278-.53.315-.802.02-2.293-1.936-4.38-4.329-4.669z"/><path d="M13.464 7.832c-.249.006-.493.033-.585.3-.137.4.152.496.446.544.983.158 1.5.74 1.598 1.725.027.268.195.484.452.454.356-.043.389-.361.378-.664.017-1.106-1.227-2.385-2.289-2.359z"/></symbol><symbol viewBox="0 0 512 512" id="i-edit"><path fill="currentColor" d="M491.609 73.625l-53.861-53.839c-26.378-26.379-69.076-26.383-95.46-.001L24.91 335.089.329 484.085c-2.675 16.215 11.368 30.261 27.587 27.587l148.995-24.582 315.326-317.378c26.33-26.331 26.581-68.879-.628-96.087zM120.644 302l170.259-169.155 88.251 88.251L210 391.355V350h-48v-48h-41.356zM82.132 458.132l-28.263-28.263 12.14-73.587L84.409 338H126v48h48v41.59l-18.282 18.401-73.586 12.141zm378.985-319.533l-.051.051-.051.051-48.03 48.344-88.03-88.03 48.344-48.03.05-.05.05-.05c9.147-9.146 23.978-9.259 33.236-.001l53.854 53.854c9.878 9.877 9.939 24.549.628 33.861z"/></symbol><symbol viewBox="0 0 640 512" id="i-eye-slash"><path fill="currentColor" d="M634 471L36 3.51A16 16 0 0 0 13.51 6l-10 12.49A16 16 0 0 0 6 41l598 467.49a16 16 0 0 0 22.49-2.49l10-12.49A16 16 0 0 0 634 471zM296.79 146.47l134.79 105.38C429.36 191.91 380.48 144 320 144a112.26 112.26 0 0 0-23.21 2.47zm46.42 219.07L208.42 260.16C210.65 320.09 259.53 368 320 368a113 113 0 0 0 23.21-2.46zM320 112c98.65 0 189.09 55 237.93 144a285.53 285.53 0 0 1-44 60.2l37.74 29.5a333.7 333.7 0 0 0 52.9-75.11 32.35 32.35 0 0 0 0-29.19C550.29 135.59 442.93 64 320 64c-36.7 0-71.71 7-104.63 18.81l46.41 36.29c18.94-4.3 38.34-7.1 58.22-7.1zm0 288c-98.65 0-189.08-55-237.93-144a285.47 285.47 0 0 1 44.05-60.19l-37.74-29.5a333.6 333.6 0 0 0-52.89 75.1 32.35 32.35 0 0 0 0 29.19C89.72 376.41 197.08 448 320 448c36.7 0 71.71-7.05 104.63-18.81l-46.41-36.28C359.28 397.2 339.89 400 320 400z"/></symbol></svg>