<?xml version="1.0" encoding="UTF-8"?> <svg xmlns="http://www.w3.org/2000/svg" width="120" height="120" viewBox="0 0 120 120" fill="none"> <circle cx="60" cy="60" r="60" fill="#DFF7EA"></circle> <path d="M86.6019 80.9823C83.8379 82.9735 36.061 82.177 28.9536 77.398C26.5845 71.4243 28.9536 43.1486 32.5073 40.7591C36.061 38.3697 86.6019 35.9802 89.7607 40.7591C92.9195 45.5381 89.3658 78.991 86.6019 80.9823Z" fill="white"></path> <path fill-rule="evenodd" clip-rule="evenodd" d="M30.0742 77.6389C40.0425 81.8104 83.9554 82.447 86.6018 80.5772C88.9941 78.887 91.978 54.0828 90.6891 44.4034C89.6666 55.5028 87.098 72.8967 82.8014 75.9657C78.5786 78.982 49.4509 78.4843 30.0742 77.6389Z" fill="#9BC5AE"></path> <path fill-rule="evenodd" clip-rule="evenodd" d="M30.4335 77.7821C29.8323 77.5533 29.3347 77.3133 28.9538 77.0622C28.798 76.6769 28.6627 76.197 28.5469 75.636L49.5755 57.8425L30.4335 77.7821ZM87.8071 78.0435C87.4038 79.3986 86.9949 80.2997 86.6021 80.5773C86.4202 80.7058 86.0434 80.8224 85.4961 80.9269L66.242 57.8425L87.8071 78.0435ZM89.677 41.0206C84.2768 46.2316 74.4634 52.8017 66.242 57.8425C63.2577 59.6722 60.4832 61.3005 58.2057 62.5891C52.3364 58.6762 39.7255 49.4411 32.2777 41.3186C32.3537 41.2443 32.4303 41.1814 32.5075 41.1306C32.6143 41.0601 32.7635 40.9897 32.9526 40.9195C41.4676 47.1498 55.1207 56.671 58.2057 56.9795C61.7342 57.3324 77.9583 47.2979 88.0026 40.089C88.8059 40.3607 89.3782 40.6702 89.677 41.0206Z" fill="#9BC5AE"></path> <path d="M26.5 36.5L17.5 27M32 34.5L28 24.5M24.5 42L16.5 37.5" stroke="#2DCA73" stroke-linecap="round"></path></svg> 