<?xml version="1.0" encoding="UTF-8"?> <svg xmlns="http://www.w3.org/2000/svg" width="120" height="120" viewBox="0 0 120 120" fill="none"> <circle cx="60" cy="60" r="60" fill="#DFF7EA"></circle> <path d="M29.9641 35.4098C27.2812 37.4327 30.6351 84.9701 34.6593 88.0043C36.7234 89.5606 85.903 91.0387 86.9761 89.0158C88.3176 86.4872 91.6716 39.4556 88.9886 36.4213C86.3057 33.387 32.6471 33.3869 29.9641 35.4098Z" fill="white"></path> <path d="M45 48.5L37.5 42M48 46.5L45 42M44 51L38.5 49" stroke="#96E4B9" stroke-linecap="round"></path> <path d="M76 63.0216C75.9883 71.2959 69.2771 78 61 78C56.785 78 53.044 76.6897 50.3666 74.2046C47.7012 71.7306 46 68.0097 46 63C46 54.7157 52.7157 48 61 48C65.2582 48 68.8624 49.0837 71.4554 51.4291C74.0347 53.7622 75.7546 57.4719 76 63.0216Z" stroke="#2DCA73" stroke-width="2"></path> <path d="M52.5 60C54.6667 62.8333 59.5 68.4 61.5 68C63.5 67.6 71.3333 55.8333 75 50" stroke="#2DCA73" stroke-width="2" stroke-linecap="round"></path></svg> 