<?xml version="1.0" encoding="UTF-8"?> <svg xmlns="http://www.w3.org/2000/svg" width="120" height="120" viewBox="0 0 120 120" fill="none"> <circle cx="60" cy="60" r="60" fill="#DFF7EA"></circle> <path d="M90.4791 46.7927C90.2115 55.318 88.2485 77.0029 82.2238 102.557C82.0838 103.151 81.6866 103.658 81.1042 103.84C71.9762 106.692 37.9297 102.473 36 99C34.0389 95.47 33.8405 60.8826 33.9907 43.0403C33.9962 42.3815 34.3258 41.7809 34.8717 41.412C43.7318 35.4255 59.3565 24.613 64 25C68.6672 25.3889 83.4819 38.415 89.967 45.4172C90.3131 45.7909 90.4951 46.2836 90.4791 46.7927Z" fill="#2DCA73"></path> <path opacity="0.15" fill-rule="evenodd" clip-rule="evenodd" d="M90.2632 51.0796C87.311 68.3627 82.1358 93.7088 77.9999 97.5C73.9752 101.189 51.8584 100.449 36.173 99.2299C39.4134 102.655 72.1767 106.629 81.1042 103.84C81.6866 103.658 82.0837 103.151 82.2238 102.557C87.412 80.5506 89.588 61.4138 90.2632 51.0796ZM90.171 45.6797C90.1111 45.5872 90.043 45.4993 89.9669 45.4172C83.4818 38.415 68.6671 25.3889 64 25C59.6392 24.6366 45.5943 34.1499 36.5619 40.2681C35.976 40.6649 35.4113 41.0474 34.8717 41.412C34.4487 41.6978 34.1556 42.1227 34.0425 42.606C40.1155 46.3948 55.3431 55.6033 60.4999 56C65.306 56.3697 81.866 49.359 90.171 45.6797Z" fill="black"></path> <path fill-rule="evenodd" clip-rule="evenodd" d="M38.71 45.4631C45.881 49.7692 56.3896 55.6838 60.5 56C63.5014 56.2309 71.0872 53.5832 78.3836 50.6662C79.9495 41.1473 83.101 30.398 84.9013 25.0574C71.7771 20.8107 45.0166 13.4254 42.9678 17.8574C41.3468 21.3642 39.7098 35.0507 38.71 45.4631Z" fill="white"></path> <path opacity="0.15" fill-rule="evenodd" clip-rule="evenodd" d="M74.7749 21.9888C65.9543 19.4804 55.7527 17.0037 49.3005 16.5593L42.2197 47.5379C45.3266 49.3435 48.7132 51.2251 51.8024 52.7555L74.7749 21.9888Z" fill="black"></path> <path fill-rule="evenodd" clip-rule="evenodd" d="M42.5684 47.7401C49.2374 51.6018 57.0813 55.7371 60.4998 56.0001C64.3526 56.2964 75.7591 51.8498 84.411 48.1787C87.4782 40.5773 91.2638 33.0656 93.4998 29.0001C81.3332 22.5001 56.2998 10.5001 53.4998 14.5001C50.7251 18.4639 45.1026 38.14 42.5684 47.7401Z" fill="white"></path> <path d="M54.33 26.4116C54.9184 26.1593 57.4021 21.2629 58.6506 21.7724C59.2959 22.0357 59.2848 23.6756 59.085 25.2895C58.9733 26.1925 59.9675 26.8944 60.7448 26.4214V26.4214C61.4758 25.9765 62.434 26.577 62.5462 27.4254C62.6506 28.2146 62.9002 28.9242 63.4138 29.1338C63.7074 29.2537 64.0578 29.2548 64.4241 29.1831C65.8532 28.9036 67.49 28.9706 68.3804 30.1228V30.1228C68.7771 30.6361 69.3481 30.9862 69.9855 31.107L72.8194 31.6441C73.2713 31.7297 73.705 31.8927 74.1015 32.1257L78.5886 34.7632C78.8512 34.9176 79.1307 35.0415 79.4215 35.1325L84.15 36.6114M52.2624 31.4779C52.6785 31.6477 75.9541 43.6092 80.0441 44.2933M51.1994 36.4616C51.8594 37.2235 76.5849 46.8216 78.6657 47.6708M50.3803 42.0374C64.8339 47.542 69.6719 49.0896 70.2842 49.1753" stroke="#414555" stroke-linecap="round"></path></svg> 