<svg width="168" height="46" viewBox="0 0 168 46" fill="none" xmlns="http://www.w3.org/2000/svg">
<path d="M60.623 27V2.72852H67.2139V27H60.623ZM84.6448 27V16.7402C84.6448 15.4896 84.4622 14.5488 84.097 13.918C83.7428 13.276 83.1673 12.9551 82.3704 12.9551C81.2747 12.9551 80.4834 13.3923 79.9964 14.2666C79.5094 15.141 79.2659 16.6406 79.2659 18.7656V27H72.7747V8.19043H77.6722L78.4857 10.5146H78.8675C79.4209 9.62923 80.1846 8.96517 81.1585 8.52246C82.1435 8.07975 83.2724 7.8584 84.5452 7.8584C86.626 7.8584 88.2418 8.46159 89.3929 9.66797C90.555 10.8743 91.1361 12.5732 91.1361 14.7646V27H84.6448ZM112.485 19.6289C112.485 21.1341 112.103 22.4733 111.339 23.6465C110.576 24.8086 109.475 25.7161 108.036 26.3691C106.597 27.0111 104.909 27.332 102.972 27.332C101.356 27.332 100.001 27.2214 98.9049 27C97.8092 26.7676 96.6692 26.3691 95.485 25.8047V19.9609C96.7357 20.6029 98.0361 21.1064 99.3864 21.4717C100.737 21.8258 101.976 22.0029 103.105 22.0029C104.079 22.0029 104.793 21.8369 105.247 21.5049C105.7 21.1618 105.927 20.7246 105.927 20.1934C105.927 19.8613 105.833 19.5736 105.645 19.3301C105.468 19.0755 105.175 18.821 104.765 18.5664C104.367 18.3118 103.293 17.7917 101.545 17.0059C99.9619 16.2865 98.7721 15.5892 97.9752 14.9141C97.1894 14.2389 96.6028 13.4642 96.2155 12.5898C95.8392 11.7155 95.651 10.6807 95.651 9.48535C95.651 7.24967 96.4645 5.50651 98.0914 4.25586C99.7184 3.00521 101.954 2.37988 104.798 2.37988C107.311 2.37988 109.873 2.96094 112.485 4.12305L110.476 9.18652C108.207 8.14616 106.248 7.62598 104.599 7.62598C103.747 7.62598 103.127 7.77539 102.74 8.07422C102.353 8.37305 102.159 8.74382 102.159 9.18652C102.159 9.66243 102.402 10.0885 102.889 10.4648C103.387 10.8411 104.727 11.5273 106.907 12.5234C108.999 13.4642 110.449 14.4769 111.256 15.5615C112.075 16.6351 112.485 17.9909 112.485 19.6289ZM128.804 27L127.559 24.5098H127.426C126.551 25.5944 125.66 26.3359 124.753 26.7344C123.845 27.1328 122.672 27.332 121.233 27.332C119.463 27.332 118.068 26.8008 117.05 25.7383C116.032 24.6758 115.522 23.1816 115.522 21.2559C115.522 19.2526 116.22 17.764 117.614 16.79C119.009 15.805 121.029 15.2516 123.674 15.1299L126.811 15.0303V14.7646C126.811 13.2152 126.048 12.4404 124.52 12.4404C123.148 12.4404 121.405 12.9053 119.291 13.835L117.415 9.55176C119.606 8.42285 122.373 7.8584 125.716 7.8584C128.129 7.8584 129.993 8.45605 131.311 9.65137C132.639 10.8467 133.303 12.5179 133.303 14.665V27H128.804ZM123.989 22.75C124.775 22.75 125.445 22.501 125.998 22.0029C126.562 21.5049 126.845 20.8574 126.845 20.0605V18.5996L125.351 18.666C123.214 18.7435 122.146 19.5293 122.146 21.0234C122.146 22.1745 122.761 22.75 123.989 22.75ZM144.89 27H138.399V1.16797H144.89V27ZM159.15 27.332C156.018 27.332 153.583 26.502 151.845 24.8418C150.119 23.1706 149.255 20.7965 149.255 17.7197C149.255 14.5433 150.058 12.1084 151.663 10.415C153.268 8.71061 155.559 7.8584 158.536 7.8584C161.369 7.8584 163.555 8.59993 165.093 10.083C166.643 11.555 167.418 13.68 167.418 16.458V19.3467H155.813C155.857 20.3981 156.239 21.2227 156.959 21.8203C157.689 22.418 158.68 22.7168 159.93 22.7168C161.07 22.7168 162.116 22.6117 163.068 22.4014C164.031 22.18 165.071 21.8092 166.189 21.2891V25.9541C165.171 26.4743 164.119 26.834 163.035 27.0332C161.95 27.2324 160.655 27.332 159.15 27.332ZM158.768 12.2744C158.004 12.2744 157.363 12.5179 156.842 13.0049C156.333 13.4808 156.034 14.2334 155.946 15.2627H161.524C161.502 14.3551 161.242 13.6302 160.744 13.0879C160.257 12.5456 159.598 12.2744 158.768 12.2744Z" fill="#181818"/>
<path opacity="0.5" d="M66.6816 43H65.6855V38.9688H61.1738V43H60.1777V34.4336H61.1738V38.0781H65.6855V34.4336H66.6816V43ZM78.9927 38.7051C78.9927 40.0762 78.645 41.1543 77.9497 41.9395C77.2583 42.7246 76.2954 43.1172 75.061 43.1172C73.7993 43.1172 72.8247 42.7324 72.1372 41.9629C71.4536 41.1895 71.1118 40.0996 71.1118 38.6934C71.1118 37.2988 71.4555 36.2188 72.143 35.4531C72.8305 34.6836 73.8071 34.2988 75.0727 34.2988C76.3032 34.2988 77.2641 34.6895 77.9555 35.4707C78.647 36.252 78.9927 37.3301 78.9927 38.7051ZM72.1665 38.7051C72.1665 39.8652 72.4126 40.7461 72.9048 41.3477C73.4009 41.9453 74.1196 42.2441 75.061 42.2441C76.0102 42.2441 76.727 41.9453 77.2114 41.3477C77.6958 40.75 77.938 39.8691 77.938 38.7051C77.938 37.5527 77.6958 36.6797 77.2114 36.0859C76.7309 35.4883 76.018 35.1895 75.0727 35.1895C74.1235 35.1895 73.4009 35.4902 72.9048 36.0918C72.4126 36.6895 72.1665 37.5605 72.1665 38.7051ZM87.2197 43L84.3134 35.4062H84.2666C84.3213 36.0078 84.3486 36.7227 84.3486 37.5508V43H83.4287V34.4336H84.9287L87.6416 41.5H87.6884L90.4248 34.4336H91.913V43H90.917V37.4805C90.917 36.8477 90.9443 36.1602 90.999 35.418H90.9521L88.0224 43H87.2197ZM101.564 43H96.7885V34.4336H101.564V35.3184H97.7846V38.0781H101.335V38.957H97.7846V42.1094H101.564V43ZM116.459 40.7207C116.459 41.4746 116.186 42.0625 115.639 42.4844C115.092 42.9062 114.35 43.1172 113.412 43.1172C112.397 43.1172 111.616 42.9863 111.069 42.7246V41.7637C111.42 41.9121 111.803 42.0293 112.217 42.1152C112.631 42.2012 113.041 42.2441 113.448 42.2441C114.112 42.2441 114.612 42.1191 114.948 41.8691C115.284 41.6152 115.452 41.2637 115.452 40.8145C115.452 40.5176 115.391 40.2754 115.27 40.0879C115.153 39.8965 114.954 39.7207 114.672 39.5605C114.395 39.4004 113.971 39.2188 113.401 39.0156C112.604 38.7305 112.034 38.3926 111.69 38.002C111.35 37.6113 111.18 37.1016 111.18 36.4727C111.18 35.8125 111.428 35.2871 111.924 34.8965C112.42 34.5059 113.077 34.3105 113.893 34.3105C114.745 34.3105 115.528 34.4668 116.243 34.7793L115.932 35.6465C115.225 35.3496 114.537 35.2012 113.87 35.2012C113.342 35.2012 112.93 35.3145 112.633 35.541C112.336 35.7676 112.188 36.082 112.188 36.4844C112.188 36.7812 112.243 37.0254 112.352 37.2168C112.461 37.4043 112.645 37.5781 112.903 37.7383C113.164 37.8945 113.563 38.0684 114.098 38.2598C114.996 38.5801 115.614 38.9238 115.95 39.291C116.289 39.6582 116.459 40.1348 116.459 40.7207ZM123.368 43H122.372V35.3184H119.659V34.4336H126.081V35.3184H123.368V43ZM137.331 38.7051C137.331 40.0762 136.984 41.1543 136.288 41.9395C135.597 42.7246 134.634 43.1172 133.4 43.1172C132.138 43.1172 131.163 42.7324 130.476 41.9629C129.792 41.1895 129.451 40.0996 129.451 38.6934C129.451 37.2988 129.794 36.2188 130.482 35.4531C131.169 34.6836 132.146 34.2988 133.411 34.2988C134.642 34.2988 135.603 34.6895 136.294 35.4707C136.986 36.252 137.331 37.3301 137.331 38.7051ZM130.505 38.7051C130.505 39.8652 130.751 40.7461 131.244 41.3477C131.74 41.9453 132.458 42.2441 133.4 42.2441C134.349 42.2441 135.066 41.9453 135.55 41.3477C136.035 40.75 136.277 39.8691 136.277 38.7051C136.277 37.5527 136.035 36.6797 135.55 36.0859C135.07 35.4883 134.357 35.1895 133.411 35.1895C132.462 35.1895 131.74 35.4902 131.244 36.0918C130.751 36.6895 130.505 37.5605 130.505 38.7051ZM142.764 39.4375V43H141.767V34.4336H144.117C145.168 34.4336 145.943 34.6348 146.443 35.0371C146.947 35.4395 147.199 36.0449 147.199 36.8535C147.199 37.9863 146.625 38.752 145.476 39.1504L147.803 43H146.625L144.551 39.4375H142.764ZM142.764 38.582H144.129C144.832 38.582 145.348 38.4434 145.676 38.166C146.004 37.8848 146.168 37.4648 146.168 36.9062C146.168 36.3398 146 35.9316 145.664 35.6816C145.332 35.4316 144.797 35.3066 144.058 35.3066H142.764V38.582ZM156.481 43H151.705V34.4336H156.481V35.3184H152.701V38.0781H156.252V38.957H152.701V42.1094H156.481V43Z" fill="#181818"/>
<path d="M23 46C35.7025 46 46 35.7025 46 23C46 10.2975 35.7025 0 23 0C10.2975 0 0 10.2975 0 23C0 35.7025 10.2975 46 23 46Z" fill="#4E7DF1"/>
<path d="M30.5681 21.9592C30.5678 21.9589 30.5674 21.9585 30.567 21.9581L24.0403 15.4316C23.7621 15.1533 23.3922 15 22.9988 15C22.6054 15 22.2355 15.1532 21.9572 15.4315L15.4339 21.9547C15.4317 21.9569 15.4295 21.9592 15.4273 21.9614C14.856 22.536 14.8569 23.4683 15.4301 24.0414C15.6919 24.3033 16.0377 24.4551 16.4075 24.4709C16.4225 24.4724 16.4376 24.4731 16.4529 24.4731H16.713V29.2762C16.713 30.2267 17.4863 31 18.437 31H20.9905C21.2493 31 21.4592 30.7902 21.4592 30.5312V26.7656C21.4592 26.3319 21.812 25.9791 22.2457 25.9791H23.7518C24.1856 25.9791 24.5383 26.3319 24.5383 26.7656V30.5312C24.5383 30.7902 24.7482 31 25.0071 31H27.5606C28.5112 31 29.2846 30.2267 29.2846 29.2762V24.4731H29.5258C29.9191 24.4731 30.289 24.3199 30.5674 24.0416C31.1411 23.4675 31.1414 22.5337 30.5681 21.9592Z" fill="white"/>
</svg>
