<?xml version="1.0" encoding="UTF-8"?> <svg xmlns="http://www.w3.org/2000/svg" width="120" height="120" viewBox="0 0 120 120" fill="none"> <circle cx="60" cy="60" r="60" fill="#DFF7EA"></circle> <mask id="mask0" maskUnits="userSpaceOnUse" x="0" y="0" width="120" height="120"> <circle cx="60" cy="60" r="60" fill="#DFF7EA"></circle> </mask> <g mask="url(#mask0)"> <path d="M71.7381 13.7895C66.4411 11.4941 54.8171 14.7459 49.6672 16.6587C46.4302 15.7023 45.3855 14.4516 37.9697 19.7486C28.6999 26.3699 24.2857 73.1601 25.8307 81.1056C27.3757 89.0512 96.3346 88.6097 96.2368 77.3536C96.016 51.9721 85.49 19.7486 71.7381 13.7895Z" fill="#563827"></path> <path d="M122.239 230.636C87.8086 255.443 27.8494 236.19 2.17361 223.463L4.8857 196.757C-1.58842 194.844 -13.4183 188.569 -14.5367 179.1C-17.8472 151.07 -2.6184 118.626 5.76854 108.473C12.4781 100.351 31.3332 92.0675 35.763 90.8168C64.5287 88.0947 92.8383 85.1667 104.845 98.7623C119.853 115.757 148.393 167.403 143.427 180.756C139.454 191.438 127.647 194.991 122.239 195.433V230.636Z" fill="#2DCA73"></path> <path d="M51.2812 90.7065V77.5743L72.9107 74.9258L74.235 92.2514C72.6532 93.4653 68.2538 96.0917 63.3099 96.8863C58.366 97.6809 53.2308 93.0975 51.2812 90.7065Z" fill="#FFCAAC"></path> <path fill-rule="evenodd" clip-rule="evenodd" d="M51.2812 83.7445C53.7774 85.9346 57.7598 87.8631 63.7514 88.0579C68.0007 88.1961 71.2958 87.4939 73.7901 86.4313L72.9107 74.9258L53.8389 77.2611L51.2812 77.8672V83.7445Z" fill="#DF8377" fill-opacity="0.37"></path> <path d="M81.4698 63.737C79.4644 73.7901 73.2846 81.9885 60.882 81.9885C51.32 81.9885 43.1637 75.5845 39.4353 63.8934C38.973 64.0234 38.3405 64.1111 37.4869 64.1111C34.397 64.1111 31.7485 58.5934 31.5278 54.9517C31.307 51.31 33.4038 48.8822 35.3902 48.9925C36.3923 49.0482 37.1697 49.5814 37.7083 50.1103C39.1479 36.7706 50.3069 25.8923 59.3371 23.611C69.8207 20.9625 79.2008 32.7704 81.6286 48.2201C81.8546 49.6581 82.0194 51.1209 82.1175 52.5916C82.9765 51.1363 84.466 49.3293 86.0428 49.5443C88.4706 49.8754 90.2363 53.9585 89.6845 56.8277C89.1327 59.6969 87.4774 64.3318 84.8289 64.5525C83.6374 64.6518 82.4366 64.2439 81.4698 63.737Z" fill="#FFCAAC"></path> <ellipse cx="76.5489" cy="62.1953" rx="3.08992" ry="4.60403" transform="rotate(1.92921 76.5489 62.1953)" fill="#FDAF9E"></ellipse> <ellipse rx="3.08992" ry="4.60403" transform="matrix(-0.96761 0.252449 0.252449 0.96761 46.5318 64.1816)" fill="#FDAF9E"></ellipse> <path d="M40.5772 56.3863C40.3124 54.444 38.0391 50.5007 36.9355 48.7718L44.4396 18.2037L74.2353 24.9353C77.7667 30.3794 84.2555 42.7686 81.9601 48.7718C57.7925 46.1233 53.7094 36.6329 50.6195 31.1151C49.8249 34.9996 44.4029 42.2977 41.7911 45.4612C41.7176 46.1969 41.3718 49.4119 40.5772 56.3863Z" fill="#563827"></path> <path d="M61.6194 69.5185C58.2754 69.5184 58.1651 69.3017 55.958 70.1806C57.2897 70.469 57.6139 72.498 61.4757 72.498C65.3375 72.498 66.6562 70.3161 67.7659 69.7392C65.2278 68.8882 64.9633 69.5185 61.6194 69.5185Z" fill="#DF8377"></path> <path d="M61.7572 71.1738C59.1112 71.1738 58.8083 70.8206 57.6128 70.5558C58.6489 70.5558 61.1037 70.9089 61.8528 70.9089C63.5265 70.9089 66.2204 70.2909 66.2204 70.2909C65.264 70.8206 64.6902 71.1738 61.7572 71.1738Z" fill="black"></path> <path d="M34.796 53.269C34.5673 53.1847 34.4503 52.9308 34.5347 52.7021C34.6191 52.4734 34.873 52.3564 35.1017 52.4408C36.6994 53.0304 37.5586 54.6011 38.0061 56.1784C38.4583 57.7727 38.5283 59.4989 38.4554 60.6087C38.4394 60.8519 38.2292 61.0362 37.986 61.0202C37.7427 61.0042 37.5584 60.7941 37.5744 60.5508C37.6425 59.5148 37.575 57.8936 37.1568 56.4194C36.7338 54.9283 35.9894 53.7094 34.796 53.269Z" fill="#DF8377"></path> <path d="M63.3115 63.3019C63.3317 63.059 63.5451 62.8785 63.788 62.8987C64.031 62.9189 64.2115 63.1323 64.1912 63.3753C64.1238 64.1848 63.1232 65.1043 60.7718 65.1043C59.5877 65.1043 58.7829 64.9344 58.2518 64.692C57.743 64.4598 57.3974 64.1134 57.3535 63.7184C57.3266 63.4761 57.5012 63.2579 57.7435 63.2309C57.9814 63.2045 58.1962 63.3724 58.2293 63.608C58.2292 63.6067 58.2294 63.6059 58.2294 63.6059C58.2294 63.6059 58.2307 63.6073 58.2326 63.6104C58.2474 63.6345 58.3204 63.7529 58.6183 63.8888C58.9939 64.0603 59.6605 64.2214 60.7718 64.2214C63.0111 64.2214 63.3054 63.3752 63.3115 63.3019Z" fill="#DF8377"></path> <path d="M86.0834 54.0423C86.3125 53.9589 86.4307 53.7057 86.3474 53.4766C86.2641 53.2474 86.0108 53.1293 85.7817 53.2126C84.1236 53.8155 83.2279 55.4243 82.7606 57.0477C82.2888 58.6865 82.2158 60.4613 82.2919 61.6023C82.3081 61.8455 82.5184 62.0296 82.7617 62.0134C83.0049 61.9971 83.189 61.7868 83.1727 61.5436C83.1017 60.4775 83.1721 58.8092 83.6089 57.2919C84.0502 55.7591 84.8282 54.4987 86.0834 54.0423Z" fill="#DF8377"></path> <ellipse cx="50.1783" cy="55.8345" rx="2.20709" ry="2.31744" fill="black"></ellipse> <ellipse cx="71.3663" cy="54.0688" rx="2.20709" ry="2.31744" fill="black"></ellipse> <path d="M53.3519 47.0957C53.9466 47.4772 54.6449 48.8465 53.6393 49.8395C51.0868 48.7755 45.8148 48.1542 42.1089 52.0462C44.6901 44.5798 52.7571 46.7142 53.3519 47.0957Z" fill="#462929"></path> <path d="M65.4602 46.2753C64.943 46.7567 64.4999 48.2286 65.6664 49.0265C67.9884 47.5245 73.0652 45.9736 77.4054 49.1429C73.5349 42.256 65.9775 45.7939 65.4602 46.2753Z" fill="#462929"></path> <path d="M91.8074 55.5034C91.8074 61.8419 88.4971 66.9803 84.4137 66.9803C80.3302 66.9803 81.6548 61.8419 81.6548 55.5034C81.6548 49.1649 80.3302 44.0266 84.4137 44.0266C88.4971 44.0266 91.8074 49.1649 91.8074 55.5034Z" fill="black"></path> <path d="M30.2448 57.0484C30.2448 63.3869 33.5551 68.5252 37.6386 68.5252C41.722 68.5252 40.3975 63.3869 40.3975 57.0484C40.3975 50.7099 41.722 45.5715 37.6386 45.5715C33.5551 45.5715 30.2448 50.7099 30.2448 57.0484Z" fill="black"></path> <path d="M59.5998 16.3276C49.3816 16.3276 42.0025 21.8593 37.5707 28.6958C33.1994 35.4389 31.5035 43.7339 32.8374 49.8197L37.3648 48.8274C36.3444 44.1721 37.6281 37.1279 41.4599 31.217C45.2311 25.3995 51.2784 20.9625 59.5998 20.9625C68.0093 20.9625 74.1999 25.0863 78.3137 30.4554C82.4857 35.9005 84.372 42.4445 84.2103 46.81L88.8421 46.9816C89.0482 41.4152 86.7411 33.8338 81.9928 27.6365C77.1862 21.3632 69.7296 16.3276 59.5998 16.3276Z" fill="black"></path> <path d="M83.7003 63.9958C82.6564 67.9757 77.0318 76.9111 62.777 78.3535L63.0437 80.9886C78.4522 79.4294 84.9518 69.6634 86.2621 64.6678L83.7003 63.9958Z" fill="black"></path> <circle cx="61.586" cy="79.34" r="3.08992" fill="black"></circle> </g></svg> 